<?xml version="1.0" encoding="UTF-8"?>
<!DOCTYPE svg>
<svg xmlns="http://www.w3.org/2000/svg" xml:space="preserve" width="4mm" height="5mm" version="1.1" shape-rendering="geometricPrecision" text-rendering="geometricPrecision" image-rendering="optimizeQuality" fill-rule="evenodd" clip-rule="evenodd"
viewBox="0 0 400 500">
 <g id="Capa_x0020_1">
  <path fill="#91D8F7" stroke="#91D8F7" stroke-width="8.82" stroke-miterlimit="22.9256" d="M240.19 54.78c8.17,0.19 8.43,-4.79 8.05,-12.32 -0.39,-7.82 -6.52,-6.68 -13.69,-6.68l-81.74 0c-6.93,-0.01 -13.66,-1.26 -13.78,6.66 -0.13,7.99 -0.69,12.37 8.03,12.38 0.77,13.71 0.05,29.66 0.05,43.61l0.01 108.84c0.02,5.68 -0.26,4.68 -2.46,8.74l-41.83 77.66c-2.56,4.94 -5.06,9.27 -7.61,14.15 -4.98,9.46 -10.46,18.68 -15.32,28.22l-15.22 28.31c-5.32,9.51 -10.21,18.71 -15.32,28.23 -2.55,4.75 -5.04,9.37 -7.63,14.12 -2.52,4.62 -5.27,9.34 -7.51,14.26 -11.75,25.89 9.8,47.64 30.49,50.33 6.4,0.83 14.77,0.4 21.47,0.4l217.67 0c15.07,0 23.64,1.22 37.05,-6.59 16.4,-9.55 20.59,-26.74 12.27,-44.17 -4.58,-9.59 -10.07,-19.19 -15.14,-28.39 -10.28,-18.69 -20.33,-37.53 -30.54,-56.53 -20.2,-37.56 -41.34,-75.55 -61.09,-113.05 -3.76,-7.13 -6.33,-9.91 -6.29,-15.69l0.02 -108.84c0,-14.2 -0.57,-29.59 0.06,-43.65z"/>
  <path fill="#00A859" fill-rule="nonzero" stroke="#00A859" stroke-width="8.82" stroke-miterlimit="22.9256" d="M49.98 445.35l0 -218.5c0,-8.1 4.02,-12.12 12.06,-12.12l97.12 0c8.04,0 12.13,4.02 12.13,12.06 0,8.04 -4.09,12.07 -12.13,12.07l-85.06 0 0 73.12 85.06 0c8.04,0 12.13,4.02 12.13,12.06 0,8.04 -4.09,12.07 -12.13,12.07l-85.06 0 0 109.24c0,8.11 -4.02,12.13 -12.06,12.13 -8.04,0 -12.06,-4.02 -12.06,-12.13z"/>
  <path fill="#5CC6D0" d="M215.5 56.59c-6.23,2.45 -4.88,6.03 -4.88,14.75l0 119.49c-0.01,3.14 -0.25,6.21 1.27,8.45 1.17,1.72 4.13,3.41 7.32,2.44 5.96,-1.83 4.85,-8.39 4.85,-14.88l0 -119.5c0,-3.21 0.26,-6.47 -1.43,-8.52 -1.38,-1.67 -4.33,-3.33 -7.13,-2.23z"/>
  <path fill="#201E1E" fill-rule="nonzero" d="M219.09 226.48c0,-8.1 4.02,-12.13 12.06,-12.13 8.04,0 12.06,4.09 12.06,12.19l0 206.82 85.06 0c8.04,0 12.13,4.01 12.13,12.05 0,8.05 -4.09,12.07 -12.13,12.07l-97.12 0c-8.04,0 -12.06,-4.09 -12.06,-12.19l0 -218.81z"/>
 </g>
</svg>
