
<svg xmlns="http://www.w3.org/2000/svg" xml:space="preserve" width="20mm" height="5mm" version="1.1" shape-rendering="geometricPrecision" text-rendering="geometricPrecision" image-rendering="optimizeQuality" fill-rule="evenodd" clip-rule="evenodd"
viewBox="0 0 2000 500">
 <g id="Capa_x0020_1">
  <path fill="#91D8F7" stroke="#91D8F7" stroke-width="8.82" stroke-miterlimit="22.9256" d="M111.73 259.93c4.7,2.47 18.6,5.8 25.22,6.02 37.92,1.21 51.54,-18.74 70.64,-25.31 11.02,-3.8 16.11,3.16 19.83,9.94l77.03 146.41c7.71,14.54 17.71,30.62 4.07,46.73 -12.44,14.7 -33.85,12.06 -52.06,12.06l-191.01 0c-11.37,-0.01 -17.79,-1.94 -25.07,-7.06 -16.13,-11.33 -17.08,-27.46 -7.66,-44.01 3.94,-6.91 7.39,-13.85 11.27,-20.73 7.78,-13.82 14.9,-27.64 22.53,-41.42 7.54,-13.6 15.19,-27.65 22.54,-41.43 2.41,-4.51 21.49,-40.13 22.67,-41.2zm78.6 -206.84c2.8,-1.1 5.75,0.56 7.13,2.23 1.69,2.05 1.43,5.31 1.43,8.52l0 119.5c0,6.49 1.11,13.05 -4.85,14.88 -3.19,0.97 -6.15,-0.72 -7.32,-2.44 -1.52,-2.24 -1.28,-5.31 -1.27,-8.45l0 -119.49c0,-8.72 -1.35,-12.3 4.88,-14.75zm24.69 -1.81c8.17,0.19 8.43,-4.79 8.05,-12.32 -0.39,-7.82 -6.52,-6.68 -13.69,-6.68l-81.74 0c-6.93,-0.01 -13.66,-1.26 -13.78,6.66 -0.13,7.99 -0.69,12.37 8.03,12.38 0.77,13.71 0.05,29.66 0.05,43.61l0.01 108.84c0.02,5.68 -0.26,4.68 -2.46,8.74l-41.83 77.66c-2.56,4.94 -5.06,9.27 -7.61,14.15 -4.98,9.46 -10.46,18.68 -15.32,28.22l-15.22 28.31c-5.32,9.51 -10.21,18.71 -15.32,28.23 -2.55,4.75 -5.04,9.37 -7.63,14.12 -2.52,4.62 -5.27,9.34 -7.51,14.26 -11.75,25.89 9.8,47.64 30.49,50.33 6.4,0.83 14.77,0.4 21.47,0.4l217.67 0c15.07,0 23.64,1.22 37.05,-6.59 16.4,-9.55 20.59,-26.74 12.27,-44.17 -4.58,-9.59 -10.07,-19.19 -15.14,-28.39 -10.28,-18.69 -20.33,-37.53 -30.54,-56.53 -20.2,-37.56 -41.34,-75.55 -61.09,-113.05 -3.76,-7.13 -6.33,-9.91 -6.29,-15.69l0.02 -108.84c0,-14.2 -0.57,-29.59 0.06,-43.65z"/>
  <path fill="none" d="M132.17 347.24c-2.82,5.16 -6.91,9.03 -6.36,18.69 0.45,7.84 3.57,13.36 7.64,17.27 17.28,16.54 41.48,5.23 44.68,-14.33 2.2,-13.5 -6.6,-26.6 -19.75,-29.69 -11.15,-2.62 -16.42,2.1 -20.35,3.02 10.32,-14.56 -7.88,-32.17 -22.34,-21.1 -12.07,9.23 -3.89,33.69 16.48,26.14z"/>
  <path fill="#00A859" stroke="#91D8F7" stroke-width="7.06" stroke-miterlimit="22.9256" d="M132.17 347.24c-20.37,7.55 -28.55,-16.91 -16.48,-26.14 14.46,-11.07 32.66,6.54 22.34,21.1 3.93,-0.92 9.2,-5.64 20.35,-3.02 13.15,3.09 21.95,16.19 19.75,29.69 -3.2,19.56 -27.4,30.87 -44.68,14.33 -4.07,-3.91 -7.19,-9.43 -7.64,-17.27 -0.55,-9.66 3.54,-13.53 6.36,-18.69zm58.6 -52.95c12.2,-3.87 16.12,14.25 4.88,17.46 -5.55,1.59 -9.82,-2.44 -11.12,-6.32 -1.37,-4.12 0.53,-9.34 6.24,-11.14zm-79.04 -34.36c-1.18,1.07 -20.26,36.69 -22.67,41.2 -7.35,13.78 -15,27.83 -22.54,41.43 -7.63,13.78 -14.75,27.6 -22.53,41.42 -3.88,6.88 -7.33,13.82 -11.27,20.73 -9.42,16.55 -8.47,32.68 7.66,44.01 7.28,5.12 13.7,7.05 25.07,7.06l191.01 0c18.21,0 39.62,2.64 52.06,-12.06 13.64,-16.11 3.64,-32.19 -4.07,-46.73l-77.03 -146.41c-3.72,-6.78 -8.81,-13.74 -19.83,-9.94 -19.1,6.57 -32.72,26.52 -70.64,25.31 -6.62,-0.22 -20.52,-3.55 -25.22,-6.02z"/>
  <path fill="#5CC6D0" d="M190.33 53.09c-6.23,2.45 -4.88,6.03 -4.88,14.75l0 119.49c-0.01,3.14 -0.25,6.21 1.27,8.45 1.17,1.72 4.13,3.41 7.32,2.44 5.96,-1.83 4.85,-8.39 4.85,-14.88l0 -119.5c0,-3.21 0.26,-6.47 -1.43,-8.52 -1.38,-1.67 -4.33,-3.33 -7.13,-2.23z"/>
  <path fill="none" d="M190.77 294.29c-5.71,1.8 -7.61,7.02 -6.24,11.14 1.3,3.88 5.57,7.91 11.12,6.32 11.24,-3.21 7.32,-21.33 -4.88,-17.46z"/>
  <polygon fill="#201E1E" fill-rule="nonzero" points="1966.48,405.3 1966.48,383.52 1988.26,383.52 1988.26,405.3 "/>
  <path fill="#201E1E" fill-rule="nonzero" d="M1923.68 356.36c0,-8.93 -3.99,-15.32 -11.9,-19.1l-72.18 -34.71c-18.8,-9.06 -28.25,-23.88 -28.25,-44.43 0,-16.12 6.69,-28.61 19.98,-37.39 11.47,-7.63 25.84,-11.48 42.98,-11.48 20.84,0 39.5,5.16 55.91,15.4 5.01,3.11 7.48,7.18 7.48,12.26 0,3.85 -1.38,7.13 -4.14,9.88 -2.76,2.76 -6.1,4.14 -9.88,4.14 -2.61,0 -4.78,-0.5 -6.6,-1.67 -13.51,-8.05 -27.74,-12.13 -42.77,-12.13 -23.23,0 -34.92,6.98 -34.92,20.84 0,8.79 3.84,15.04 11.54,18.74l72.75 35.07c18.67,9.07 28.04,23.89 28.04,44.43 0,16.99 -6.68,29.77 -20.2,38.27 -11.46,7.19 -26.28,10.82 -44.43,10.82 -26.94,0 -49.6,-5.16 -67.9,-15.4 -5.22,-2.97 -7.84,-7.11 -7.84,-12.48 0,-3.85 1.39,-7.12 4.15,-9.88 2.76,-2.76 6.02,-4.14 9.87,-4.14 1.89,0 3.63,0.29 5.3,1.02 4.58,2.03 11.26,4.64 20.05,7.92 12.77,3.4 25.12,5.08 37.17,5.08 23.89,0 35.79,-7.05 35.79,-21.06z"/>
  <path fill="#201E1E" fill-rule="nonzero" d="M1729.98 236.7l-56.63 0 0 140.72 56.62 0c7.85,0 14.53,-2.76 20.05,-8.21 5.51,-5.45 8.28,-12.12 8.28,-19.97l0 -84.38c0,-7.97 -2.69,-14.67 -8.14,-20.03 -5.44,-5.45 -12.19,-8.13 -20.18,-8.13zm56.2 28.25l0 84.22c0,15.76 -5.44,29.04 -16.34,39.87 -10.82,10.82 -24.18,16.26 -39.93,16.26l-70.36 0c-9.37,0 -14.09,-4.72 -14.09,-14.09l0 -252.9c0,-9.36 4.65,-14.01 13.94,-14.01 9.29,0 13.95,4.72 13.95,14.08l0 70.45 56.41 -0.01c21.92,0 38.27,9.29 48.94,27.88 5.01,8.64 7.48,18.08 7.48,28.25z"/>
  <path fill="#201E1E" fill-rule="nonzero" d="M1324.83 138.31c0,-9.36 4.64,-14.01 13.94,-14.01 9.29,0 13.94,4.72 13.94,14.08l0 239.04 98.31 0c9.3,0 14.02,4.64 14.02,13.94 0,9.29 -4.72,13.94 -14.02,13.94l-112.25 0c-9.3,0 -13.94,-4.72 -13.94,-14.09l0 -252.9z"/>
  <path fill="#00A859" fill-rule="nonzero" stroke="#00A859" stroke-width="20" stroke-miterlimit="22.9256" d="M982.81 208.82l126.05 0c15.68,0 28.9,5.44 39.72,16.26 10.82,10.83 16.26,24.11 16.26,39.87l0 126.33c0,9.37 -4.64,14.02 -13.93,14.02 -9.31,0 -13.95,-4.72 -13.95,-14.09l0 -126.41c0,-7.91 -2.68,-14.6 -8.05,-20.04 -5.45,-5.38 -12.14,-8.06 -20.05,-8.06l-28.1 0 0 154.51c0,9.37 -4.65,14.09 -13.94,14.09 -9.3,0 -13.94,-4.72 -13.94,-14.09l0 -154.51 -56.2 0 0 154.51c0,9.37 -4.65,14.09 -13.94,14.09 -9.29,0 -13.95,-4.65 -13.95,-14.02l0 -168.44c0,-9.38 4.66,-14.02 14.02,-14.02z"/>
  <path fill="#00A859" fill-rule="nonzero" stroke="#00A859" stroke-width="20" stroke-miterlimit="22.9256" d="M800.78 222.84c0,-9.38 4.64,-14.02 13.93,-14.02l84.16 0c9.37,0 14.01,4.64 14.01,13.93l0 27.96c0,9.37 -4.64,14.09 -14.01,14.09 -9.37,0 -14.08,-4.72 -14.08,-14.09l0 -14.01 -56.13 0 0 154.51c0,9.37 -4.65,14.09 -13.95,14.09 -9.29,0 -13.93,-4.65 -13.93,-14.02l0 -168.44z"/>
  <path fill="#00A859" fill-rule="nonzero" stroke="#00A859" stroke-width="20" stroke-miterlimit="22.9256" d="M716.18 320.78l-56.13 0c-7.84,0 -14.44,2.77 -19.89,8.28 -5.51,5.52 -8.2,12.2 -8.2,20.04 0,7.7 2.76,14.38 8.27,19.96 5.52,5.6 12.13,8.36 19.82,8.36l56.13 0 0 -56.64zm-56.13 84.52c-15.75,0 -29.04,-5.44 -39.93,-16.26 -10.81,-10.9 -16.27,-24.18 -16.27,-39.94 0,-10.24 2.47,-19.68 7.49,-28.32 10.6,-18.59 26.87,-27.88 48.71,-27.88l56.13 0 0 -28.1c0,-7.91 -2.68,-14.6 -8.06,-20.04 -5.44,-5.38 -12.05,-8.06 -20.03,-8.06l-56.13 0c-9.37,0 -14.02,-4.64 -14.02,-13.95 0,-9.29 4.65,-13.93 14.02,-13.93l56.13 0c15.75,0 29.04,5.44 39.78,16.26 10.82,10.83 16.2,24.11 16.2,39.87l0 126.33c0,9.37 -4.65,14.02 -13.94,14.02l-70.08 0z"/>
  <path fill="#201E1E" fill-rule="nonzero" d="M1581.89 320.78l-56.13 0c-7.84,0 -14.45,2.77 -19.89,8.28 -5.52,5.52 -8.21,12.2 -8.21,20.04 0,7.7 2.76,14.38 8.28,19.96 5.51,5.6 12.12,8.36 19.82,8.36l56.13 0 0 -56.64zm-56.13 84.52c-15.76,0 -29.04,-5.44 -39.93,-16.26 -10.82,-10.9 -16.27,-24.18 -16.27,-39.94 0,-10.24 2.47,-19.68 7.48,-28.32 10.6,-18.59 26.87,-27.88 48.72,-27.88l56.13 0 0 -28.1c0,-7.91 -2.69,-14.6 -8.06,-20.04 -5.44,-5.38 -12.05,-8.06 -20.04,-8.06l-56.13 0c-9.36,0 -14.01,-4.64 -14.01,-13.95 0,-9.29 4.65,-13.93 14.01,-13.93l56.13 0c15.76,0 29.04,5.44 39.79,16.26 10.81,10.83 16.2,24.11 16.2,39.87l0 126.33c0,9.37 -4.65,14.02 -13.95,14.02l-70.07 0z"/>
  <path fill="#00A859" fill-rule="nonzero" stroke="#00A859" stroke-width="17.64" stroke-miterlimit="22.9256" d="M429.57 391.28l0 -252.54c0,-9.36 4.64,-14 13.93,-14l112.26 0c9.3,0 14.02,4.64 14.02,13.93 0,9.3 -4.72,13.95 -14.02,13.95l-98.31 0 0 84.51 98.31 0c9.3,0 14.02,4.65 14.02,13.94 0,9.3 -4.72,13.95 -14.02,13.95l-98.31 0 0 126.26c0,9.37 -4.65,14.02 -13.95,14.02 -9.29,0 -13.93,-4.65 -13.93,-14.02z"/>
 </g>
</svg>